<svg xmlns="http://www.w3.org/2000/svg" version="1.1" xmlns:xlink="http://www.w3.org/1999/xlink" width="2000" height="115" viewBox="0 0 2000 115"><svg xml:space="preserve" width="2000" height="115" data-version="2" data-id="lg_etP9jHdS2uaI7BIXr2" viewBox="0 0 566 115" x="0" y="0"><rect width="100%" height="100%" fill="transparent"></rect><circle r="59.32" fill="#f0f" transform="translate(61.89 57.5)scale(.9544)"></circle><path fill="#f0f" d="M133.88 38.63V24.94h54.57v13.69Zm16.39 49.17V41.9h21.79v45.9Z"></path><rect width="54.57" height="62.86" x="-27.29" y="-31.43" fill="none" rx="0" ry="0" transform="translate(161.66 56.87)"></rect><path fill="#f0f" d="M221.74 87.8V50.05h-29.79V43.8l6.3-6.3h31.4l12.55 12.55V87.8Zm-25.57 0-8.43-8.29v-12.6l8.43-8.38h22.26v8.71h-10.8v8.81h10.8v5.54l-6.25 6.21Z"></path><rect width="54.46" height="50.3" x="-27.23" y="-25.15" fill="none" rx="0" ry="0" transform="translate(215.47 63.15)"></rect><path fill="#f0f" d="M275.88 87.8V76.05h9.23v-26h-9.23V43.7l6.16-6.2h11.46l12.6 12.55v25.19L293.5 87.8Zm-24.25 16.76V37.5h20.93v67.06Z"></path><rect width="54.47" height="67.06" x="-27.23" y="-33.53" fill="none" rx="0" ry="0" transform="translate(279.37 71.53)"></rect><path fill="#f0f" d="M347.49 87.8V50.05H317.7V43.8l6.3-6.3h31.4l12.55 12.55V87.8Zm-25.57 0-8.43-8.29v-12.6l8.43-8.38h22.26v8.71h-10.8v8.81h10.8v5.54l-6.26 6.21Z"></path><rect width="54.46" height="50.3" x="-27.23" y="-25.15" fill="none" rx="0" ry="0" transform="translate(341.22 63.15)"></rect><path fill="#f0f" d="M377.38 87.8V18.31h20.93V87.8Zm24.2-7.11v-28.7l9.66-14.49h21.65Zm9.66 7.11-3.45-10.14 12.36-16.67 13.83 26.81Z"></path><rect width="56.6" height="69.49" x="-28.3" y="-34.74" fill="none" rx="0" ry="0" transform="translate(406.18 53.55)"></rect><path fill="#f0f" d="M439.57 31.24V17.89h20.98v13.35Zm0 56.56V37.5h20.98v50.3Z"></path><rect width="20.98" height="69.91" x="-10.49" y="-34.95" fill="none" rx="0" ry="0" transform="translate(450.56 53.34)"></rect><path fill="#f0f" d="m482.19 87.8-11.74-11.75V18.31h20.93v56.93h9.38V87.8Z"></path><rect width="30.31" height="69.49" x="-15.15" y="-34.74" fill="none" rx="0" ry="0" transform="translate(486.1 53.55)"></rect><path fill="#f0f" d="M539.27 87.8V50.05h-29.8V43.8l6.3-6.3h31.41l12.55 12.55V87.8Zm-25.58 0-8.43-8.29v-12.6l8.43-8.38h22.26v8.71h-10.8v8.81h10.8v5.54l-6.25 6.21Z"></path><rect width="54.47" height="50.3" x="-27.23" y="-25.15" fill="none" rx="0" ry="0" transform="translate(533 63.15)"></rect><path d="M46.01 46.16v-8.89h35.43v8.89Zm10.64 31.93V48.28H70.8v29.81Z" paint-order="stroke"></path><rect width="35.43" height="40.82" x="-17.71" y="-20.41" fill="none" rx="0" ry="0" transform="translate(64.22 58.18)"></rect></svg></svg>